<svg width="153" height="222" viewBox="0 0 153 222" fill="none" xmlns="http://www.w3.org/2000/svg">
  <rect width="153" height="222" fill="#FFFFFF" rx="8"/>
  <!-- Question Icon - Question mark with mystical elements -->
  <g transform="translate(0, 0)">
    <!-- Question mark -->
    <path d="M76.5 40 C76.5 20, 90 10, 110 10 C130 10, 143 20, 143 40 C143 60, 130 70, 110 70 L110 90" stroke="#000000" stroke-width="8" fill="none" stroke-linecap="round"/>
    <circle cx="76.5" cy="140" r="8" fill="#000000"/>
    <!-- Mystical swirls -->
    <path d="M30 50 Q50 30, 70 50 Q50 70, 30 50" stroke="#000000" stroke-width="2" fill="none"/>
    <path d="M100 80 Q120 60, 140 80 Q120 100, 100 80" stroke="#000000" stroke-width="2" fill="none"/>
    <!-- Stars -->
    <path d="M20 30 L25 35 L20 40 L15 35 Z" fill="#000000"/>
    <path d="M120 20 L125 25 L120 30 L115 25 Z" fill="#000000"/>
    <path d="M10 100 L15 105 L10 110 L5 105 Z" fill="#000000"/>
    <path d="M130 120 L135 125 L130 130 L125 125 Z" fill="#000000"/>
    <!-- Orbiting elements -->
    <circle cx="76.5" cy="180" r="30" stroke="#000000" stroke-width="2" fill="none"/>
    <circle cx="76.5" cy="180" r="20" stroke="#000000" stroke-width="1" fill="none"/>
    <circle cx="76.5" cy="180" r="10" stroke="#000000" stroke-width="1" fill="none"/>
    <!-- Small dots around the circle -->
    <circle cx="106.5" cy="180" r="2" fill="#000000"/>
    <circle cx="46.5" cy="180" r="2" fill="#000000"/>
    <circle cx="76.5" cy="150" r="2" fill="#000000"/>
    <circle cx="76.5" cy="210" r="2" fill="#000000"/>
  </g>
</svg>
